<mxfile host="app.diagrams.net" agent="Mozilla/5.0 (Windows NT 10.0; Win64; x64; rv:132.0) Gecko/20100101 Firefox/132.0" version="24.8.4">
  <diagram name="Page-1" id="dG_vQTtjT16ezdhk-kai">
    <mxGraphModel dx="2607" dy="1405" grid="1" gridSize="10" guides="1" tooltips="1" connect="1" arrows="1" fold="1" page="1" pageScale="1" pageWidth="1400" pageHeight="850" math="0" shadow="0">
      <root>
        <mxCell id="0" />
        <mxCell id="1" parent="0" />
        <mxCell id="h-LrLMW3Vg-HoDTsd1an-1" value="FACULTAD" style="rounded=1;whiteSpace=wrap;html=1;" vertex="1" parent="1">
          <mxGeometry x="680" y="162.5" width="120" height="60" as="geometry" />
        </mxCell>
        <mxCell id="h-LrLMW3Vg-HoDTsd1an-3" value="" style="ellipse;whiteSpace=wrap;html=1;fillColor=#000000;" vertex="1" parent="1">
          <mxGeometry x="820" y="157.5" width="20" height="20" as="geometry" />
        </mxCell>
        <mxCell id="h-LrLMW3Vg-HoDTsd1an-4" value="&lt;div align=&quot;left&quot;&gt;CODIGO&lt;/div&gt;" style="text;html=1;align=left;verticalAlign=middle;resizable=0;points=[];autosize=1;strokeColor=none;fillColor=none;" vertex="1" parent="1">
          <mxGeometry x="840" y="152.5" width="70" height="30" as="geometry" />
        </mxCell>
        <mxCell id="h-LrLMW3Vg-HoDTsd1an-12" value="" style="edgeStyle=orthogonalEdgeStyle;shape=connector;curved=1;rounded=0;orthogonalLoop=1;jettySize=auto;html=1;strokeColor=default;align=center;verticalAlign=middle;fontFamily=Helvetica;fontSize=11;fontColor=default;labelBackgroundColor=default;endArrow=none;endFill=0;" edge="1" parent="1" source="h-LrLMW3Vg-HoDTsd1an-5" target="h-LrLMW3Vg-HoDTsd1an-1">
          <mxGeometry relative="1" as="geometry" />
        </mxCell>
        <mxCell id="h-LrLMW3Vg-HoDTsd1an-5" value="" style="ellipse;whiteSpace=wrap;html=1;fillColor=#000000;" vertex="1" parent="1">
          <mxGeometry x="820" y="182.5" width="20" height="20" as="geometry" />
        </mxCell>
        <mxCell id="h-LrLMW3Vg-HoDTsd1an-6" value="NOMBRE" style="text;html=1;align=left;verticalAlign=middle;resizable=0;points=[];autosize=1;strokeColor=none;fillColor=none;" vertex="1" parent="1">
          <mxGeometry x="840" y="177.5" width="80" height="30" as="geometry" />
        </mxCell>
        <mxCell id="h-LrLMW3Vg-HoDTsd1an-13" value="" style="edgeStyle=orthogonalEdgeStyle;shape=connector;curved=1;rounded=0;orthogonalLoop=1;jettySize=auto;html=1;strokeColor=default;align=center;verticalAlign=middle;fontFamily=Helvetica;fontSize=11;fontColor=default;labelBackgroundColor=default;endArrow=none;endFill=0;entryX=0.993;entryY=0.85;entryDx=0;entryDy=0;entryPerimeter=0;" edge="1" parent="1" source="h-LrLMW3Vg-HoDTsd1an-7" target="h-LrLMW3Vg-HoDTsd1an-1">
          <mxGeometry relative="1" as="geometry" />
        </mxCell>
        <mxCell id="h-LrLMW3Vg-HoDTsd1an-7" value="" style="ellipse;whiteSpace=wrap;html=1;" vertex="1" parent="1">
          <mxGeometry x="820" y="207.5" width="20" height="20" as="geometry" />
        </mxCell>
        <mxCell id="h-LrLMW3Vg-HoDTsd1an-8" value="FECHA_CREACION" style="text;html=1;align=left;verticalAlign=middle;resizable=0;points=[];autosize=1;strokeColor=none;fillColor=none;" vertex="1" parent="1">
          <mxGeometry x="840" y="202.5" width="130" height="30" as="geometry" />
        </mxCell>
        <mxCell id="h-LrLMW3Vg-HoDTsd1an-11" style="edgeStyle=orthogonalEdgeStyle;rounded=0;orthogonalLoop=1;jettySize=auto;html=1;entryX=1.003;entryY=0.11;entryDx=0;entryDy=0;entryPerimeter=0;curved=1;endArrow=none;endFill=0;" edge="1" parent="1" source="h-LrLMW3Vg-HoDTsd1an-3" target="h-LrLMW3Vg-HoDTsd1an-1">
          <mxGeometry relative="1" as="geometry" />
        </mxCell>
        <mxCell id="h-LrLMW3Vg-HoDTsd1an-66" value="" style="edgeStyle=orthogonalEdgeStyle;shape=connector;curved=1;rounded=0;orthogonalLoop=1;jettySize=auto;html=1;strokeColor=default;align=center;verticalAlign=middle;fontFamily=Helvetica;fontSize=11;fontColor=default;labelBackgroundColor=default;endArrow=none;endFill=0;" edge="1" parent="1" source="h-LrLMW3Vg-HoDTsd1an-14" target="h-LrLMW3Vg-HoDTsd1an-65">
          <mxGeometry relative="1" as="geometry" />
        </mxCell>
        <mxCell id="h-LrLMW3Vg-HoDTsd1an-68" value="(0,N)" style="edgeLabel;html=1;align=center;verticalAlign=middle;resizable=0;points=[];fontFamily=Helvetica;fontSize=11;fontColor=default;labelBackgroundColor=default;" vertex="1" connectable="0" parent="h-LrLMW3Vg-HoDTsd1an-66">
          <mxGeometry x="-0.3841" y="1" relative="1" as="geometry">
            <mxPoint as="offset" />
          </mxGeometry>
        </mxCell>
        <mxCell id="h-LrLMW3Vg-HoDTsd1an-14" value="SEDE" style="rounded=1;whiteSpace=wrap;html=1;" vertex="1" parent="1">
          <mxGeometry x="250" y="162.5" width="120" height="60" as="geometry" />
        </mxCell>
        <mxCell id="h-LrLMW3Vg-HoDTsd1an-32" style="edgeStyle=orthogonalEdgeStyle;shape=connector;curved=1;rounded=0;orthogonalLoop=1;jettySize=auto;html=1;entryX=0;entryY=0;entryDx=0;entryDy=0;strokeColor=default;align=center;verticalAlign=middle;fontFamily=Helvetica;fontSize=11;fontColor=default;labelBackgroundColor=default;endArrow=none;endFill=0;" edge="1" parent="1" source="h-LrLMW3Vg-HoDTsd1an-15" target="h-LrLMW3Vg-HoDTsd1an-14">
          <mxGeometry relative="1" as="geometry" />
        </mxCell>
        <mxCell id="h-LrLMW3Vg-HoDTsd1an-15" value="" style="ellipse;whiteSpace=wrap;html=1;fillColor=#000000;" vertex="1" parent="1">
          <mxGeometry x="210" y="145" width="20" height="20" as="geometry" />
        </mxCell>
        <mxCell id="h-LrLMW3Vg-HoDTsd1an-16" value="&lt;div&gt;CODIGO&lt;/div&gt;" style="text;html=1;align=right;verticalAlign=middle;resizable=0;points=[];autosize=1;strokeColor=none;fillColor=none;" vertex="1" parent="1">
          <mxGeometry x="140" y="140" width="70" height="30" as="geometry" />
        </mxCell>
        <mxCell id="h-LrLMW3Vg-HoDTsd1an-33" value="" style="edgeStyle=orthogonalEdgeStyle;shape=connector;curved=1;rounded=0;orthogonalLoop=1;jettySize=auto;html=1;strokeColor=default;align=center;verticalAlign=middle;fontFamily=Helvetica;fontSize=11;fontColor=default;labelBackgroundColor=default;endArrow=none;endFill=0;entryX=0;entryY=0.25;entryDx=0;entryDy=0;" edge="1" parent="1" source="h-LrLMW3Vg-HoDTsd1an-18" target="h-LrLMW3Vg-HoDTsd1an-14">
          <mxGeometry relative="1" as="geometry" />
        </mxCell>
        <mxCell id="h-LrLMW3Vg-HoDTsd1an-18" value="" style="ellipse;whiteSpace=wrap;html=1;fillColor=#000000;" vertex="1" parent="1">
          <mxGeometry x="210" y="170" width="20" height="20" as="geometry" />
        </mxCell>
        <mxCell id="h-LrLMW3Vg-HoDTsd1an-19" value="NOMBRE" style="text;html=1;align=right;verticalAlign=middle;resizable=0;points=[];autosize=1;strokeColor=none;fillColor=none;" vertex="1" parent="1">
          <mxGeometry x="130" y="165" width="80" height="30" as="geometry" />
        </mxCell>
        <mxCell id="h-LrLMW3Vg-HoDTsd1an-34" value="" style="edgeStyle=orthogonalEdgeStyle;shape=connector;curved=1;rounded=0;orthogonalLoop=1;jettySize=auto;html=1;strokeColor=default;align=center;verticalAlign=middle;fontFamily=Helvetica;fontSize=11;fontColor=default;labelBackgroundColor=default;endArrow=none;endFill=0;entryX=0;entryY=0.75;entryDx=0;entryDy=0;" edge="1" parent="1" source="h-LrLMW3Vg-HoDTsd1an-27" target="h-LrLMW3Vg-HoDTsd1an-14">
          <mxGeometry relative="1" as="geometry" />
        </mxCell>
        <mxCell id="h-LrLMW3Vg-HoDTsd1an-27" value="" style="ellipse;whiteSpace=wrap;html=1;fillColor=#ffffff;" vertex="1" parent="1">
          <mxGeometry x="210" y="195" width="20" height="20" as="geometry" />
        </mxCell>
        <mxCell id="h-LrLMW3Vg-HoDTsd1an-28" value="TIPO_PROPIEDAD" style="text;html=1;align=right;verticalAlign=middle;resizable=0;points=[];autosize=1;strokeColor=none;fillColor=none;" vertex="1" parent="1">
          <mxGeometry x="80" y="190" width="130" height="30" as="geometry" />
        </mxCell>
        <mxCell id="h-LrLMW3Vg-HoDTsd1an-29" value="" style="ellipse;whiteSpace=wrap;html=1;fillColor=#ffffff;" vertex="1" parent="1">
          <mxGeometry x="210" y="220" width="20" height="20" as="geometry" />
        </mxCell>
        <mxCell id="h-LrLMW3Vg-HoDTsd1an-30" value="PERIODO_ALQUILER(0,1)" style="text;html=1;align=right;verticalAlign=middle;resizable=0;points=[];autosize=1;strokeColor=none;fillColor=none;" vertex="1" parent="1">
          <mxGeometry x="40" y="215" width="170" height="30" as="geometry" />
        </mxCell>
        <mxCell id="h-LrLMW3Vg-HoDTsd1an-64" value="" style="edgeStyle=orthogonalEdgeStyle;shape=connector;curved=1;rounded=0;orthogonalLoop=1;jettySize=auto;html=1;strokeColor=default;align=center;verticalAlign=middle;fontFamily=Helvetica;fontSize=11;fontColor=default;labelBackgroundColor=default;endArrow=none;endFill=0;" edge="1" parent="1" source="h-LrLMW3Vg-HoDTsd1an-31" target="h-LrLMW3Vg-HoDTsd1an-14">
          <mxGeometry relative="1" as="geometry" />
        </mxCell>
        <mxCell id="h-LrLMW3Vg-HoDTsd1an-31" value="DIRECCION" style="ellipse;whiteSpace=wrap;html=1;fontFamily=Helvetica;fontSize=11;fontColor=default;labelBackgroundColor=default;" vertex="1" parent="1">
          <mxGeometry x="195.01" y="55" width="120" height="60" as="geometry" />
        </mxCell>
        <mxCell id="h-LrLMW3Vg-HoDTsd1an-36" style="edgeStyle=orthogonalEdgeStyle;shape=connector;curved=1;rounded=0;orthogonalLoop=1;jettySize=auto;html=1;entryX=0.097;entryY=0.975;entryDx=0;entryDy=0;entryPerimeter=0;strokeColor=default;align=center;verticalAlign=middle;fontFamily=Helvetica;fontSize=11;fontColor=default;labelBackgroundColor=default;endArrow=none;endFill=0;" edge="1" parent="1" source="h-LrLMW3Vg-HoDTsd1an-29" target="h-LrLMW3Vg-HoDTsd1an-14">
          <mxGeometry relative="1" as="geometry" />
        </mxCell>
        <mxCell id="h-LrLMW3Vg-HoDTsd1an-37" value="" style="edgeStyle=orthogonalEdgeStyle;shape=connector;curved=1;rounded=0;orthogonalLoop=1;jettySize=auto;html=1;strokeColor=default;align=center;verticalAlign=middle;fontFamily=Helvetica;fontSize=11;fontColor=default;labelBackgroundColor=default;endArrow=none;endFill=0;entryX=0;entryY=0.75;entryDx=0;entryDy=0;" edge="1" parent="1" source="h-LrLMW3Vg-HoDTsd1an-38">
          <mxGeometry relative="1" as="geometry">
            <mxPoint x="200" y="73" as="targetPoint" />
          </mxGeometry>
        </mxCell>
        <mxCell id="h-LrLMW3Vg-HoDTsd1an-38" value="" style="ellipse;whiteSpace=wrap;html=1;fillColor=#ffffff;" vertex="1" parent="1">
          <mxGeometry x="160" y="60" width="20" height="20" as="geometry" />
        </mxCell>
        <mxCell id="h-LrLMW3Vg-HoDTsd1an-39" value="CALLE 2" style="text;html=1;align=right;verticalAlign=middle;resizable=0;points=[];autosize=1;strokeColor=none;fillColor=none;" vertex="1" parent="1">
          <mxGeometry x="90" y="55" width="70" height="30" as="geometry" />
        </mxCell>
        <mxCell id="h-LrLMW3Vg-HoDTsd1an-40" value="" style="ellipse;whiteSpace=wrap;html=1;fillColor=#ffffff;" vertex="1" parent="1">
          <mxGeometry x="160" y="35" width="20" height="20" as="geometry" />
        </mxCell>
        <mxCell id="h-LrLMW3Vg-HoDTsd1an-41" value="CALLE 1" style="text;html=1;align=right;verticalAlign=middle;resizable=0;points=[];autosize=1;strokeColor=none;fillColor=none;" vertex="1" parent="1">
          <mxGeometry x="90" y="30" width="70" height="30" as="geometry" />
        </mxCell>
        <mxCell id="h-LrLMW3Vg-HoDTsd1an-43" value="" style="ellipse;whiteSpace=wrap;html=1;fillColor=#ffffff;" vertex="1" parent="1">
          <mxGeometry x="160" y="110" width="20" height="20" as="geometry" />
        </mxCell>
        <mxCell id="h-LrLMW3Vg-HoDTsd1an-44" value="PISO(0,1)" style="text;html=1;align=right;verticalAlign=middle;resizable=0;points=[];autosize=1;strokeColor=none;fillColor=none;" vertex="1" parent="1">
          <mxGeometry x="80" y="105" width="80" height="30" as="geometry" />
        </mxCell>
        <mxCell id="h-LrLMW3Vg-HoDTsd1an-45" value="" style="ellipse;whiteSpace=wrap;html=1;fillColor=#ffffff;" vertex="1" parent="1">
          <mxGeometry x="160" y="85" width="20" height="20" as="geometry" />
        </mxCell>
        <mxCell id="h-LrLMW3Vg-HoDTsd1an-46" value="NUMERO" style="text;html=1;align=right;verticalAlign=middle;resizable=0;points=[];autosize=1;strokeColor=none;fillColor=none;" vertex="1" parent="1">
          <mxGeometry x="80" y="80" width="80" height="30" as="geometry" />
        </mxCell>
        <mxCell id="h-LrLMW3Vg-HoDTsd1an-47" style="edgeStyle=orthogonalEdgeStyle;shape=connector;curved=1;rounded=0;orthogonalLoop=1;jettySize=auto;html=1;entryX=0.187;entryY=0.914;entryDx=0;entryDy=0;entryPerimeter=0;strokeColor=default;align=center;verticalAlign=middle;fontFamily=Helvetica;fontSize=11;fontColor=default;labelBackgroundColor=default;endArrow=none;endFill=0;" edge="1" parent="1" source="h-LrLMW3Vg-HoDTsd1an-43" target="h-LrLMW3Vg-HoDTsd1an-31">
          <mxGeometry relative="1" as="geometry" />
        </mxCell>
        <mxCell id="h-LrLMW3Vg-HoDTsd1an-48" style="edgeStyle=orthogonalEdgeStyle;shape=connector;curved=1;rounded=0;orthogonalLoop=1;jettySize=auto;html=1;entryX=0.011;entryY=0.638;entryDx=0;entryDy=0;entryPerimeter=0;strokeColor=default;align=center;verticalAlign=middle;fontFamily=Helvetica;fontSize=11;fontColor=default;labelBackgroundColor=default;endArrow=none;endFill=0;" edge="1" parent="1" source="h-LrLMW3Vg-HoDTsd1an-45" target="h-LrLMW3Vg-HoDTsd1an-31">
          <mxGeometry relative="1" as="geometry" />
        </mxCell>
        <mxCell id="h-LrLMW3Vg-HoDTsd1an-49" style="edgeStyle=orthogonalEdgeStyle;shape=connector;curved=1;rounded=0;orthogonalLoop=1;jettySize=auto;html=1;entryX=0.215;entryY=0.057;entryDx=0;entryDy=0;entryPerimeter=0;strokeColor=default;align=center;verticalAlign=middle;fontFamily=Helvetica;fontSize=11;fontColor=default;labelBackgroundColor=default;endArrow=none;endFill=0;" edge="1" parent="1" source="h-LrLMW3Vg-HoDTsd1an-40" target="h-LrLMW3Vg-HoDTsd1an-31">
          <mxGeometry relative="1" as="geometry" />
        </mxCell>
        <mxCell id="h-LrLMW3Vg-HoDTsd1an-63" value="" style="edgeStyle=orthogonalEdgeStyle;shape=connector;curved=1;rounded=0;orthogonalLoop=1;jettySize=auto;html=1;strokeColor=default;align=center;verticalAlign=middle;fontFamily=Helvetica;fontSize=11;fontColor=default;labelBackgroundColor=default;endArrow=none;endFill=0;" edge="1" parent="1" source="h-LrLMW3Vg-HoDTsd1an-50" target="h-LrLMW3Vg-HoDTsd1an-1">
          <mxGeometry relative="1" as="geometry" />
        </mxCell>
        <mxCell id="h-LrLMW3Vg-HoDTsd1an-50" value="DIRECCION" style="ellipse;whiteSpace=wrap;html=1;fontFamily=Helvetica;fontSize=11;fontColor=default;labelBackgroundColor=default;" vertex="1" parent="1">
          <mxGeometry x="655.01" y="60" width="120" height="60" as="geometry" />
        </mxCell>
        <mxCell id="h-LrLMW3Vg-HoDTsd1an-51" value="" style="edgeStyle=orthogonalEdgeStyle;shape=connector;curved=1;rounded=0;orthogonalLoop=1;jettySize=auto;html=1;strokeColor=default;align=center;verticalAlign=middle;fontFamily=Helvetica;fontSize=11;fontColor=default;labelBackgroundColor=default;endArrow=none;endFill=0;entryX=0;entryY=0.75;entryDx=0;entryDy=0;" edge="1" parent="1" source="h-LrLMW3Vg-HoDTsd1an-52">
          <mxGeometry relative="1" as="geometry">
            <mxPoint x="660" y="78" as="targetPoint" />
          </mxGeometry>
        </mxCell>
        <mxCell id="h-LrLMW3Vg-HoDTsd1an-52" value="" style="ellipse;whiteSpace=wrap;html=1;fillColor=#ffffff;" vertex="1" parent="1">
          <mxGeometry x="620" y="65" width="20" height="20" as="geometry" />
        </mxCell>
        <mxCell id="h-LrLMW3Vg-HoDTsd1an-53" value="CALLE 2" style="text;html=1;align=right;verticalAlign=middle;resizable=0;points=[];autosize=1;strokeColor=none;fillColor=none;" vertex="1" parent="1">
          <mxGeometry x="550" y="60" width="70" height="30" as="geometry" />
        </mxCell>
        <mxCell id="h-LrLMW3Vg-HoDTsd1an-54" value="" style="ellipse;whiteSpace=wrap;html=1;fillColor=#ffffff;" vertex="1" parent="1">
          <mxGeometry x="620" y="40" width="20" height="20" as="geometry" />
        </mxCell>
        <mxCell id="h-LrLMW3Vg-HoDTsd1an-55" value="CALLE 1" style="text;html=1;align=right;verticalAlign=middle;resizable=0;points=[];autosize=1;strokeColor=none;fillColor=none;" vertex="1" parent="1">
          <mxGeometry x="550" y="35" width="70" height="30" as="geometry" />
        </mxCell>
        <mxCell id="h-LrLMW3Vg-HoDTsd1an-56" value="" style="ellipse;whiteSpace=wrap;html=1;fillColor=#ffffff;" vertex="1" parent="1">
          <mxGeometry x="620" y="115" width="20" height="20" as="geometry" />
        </mxCell>
        <mxCell id="h-LrLMW3Vg-HoDTsd1an-57" value="PISO(0,1)" style="text;html=1;align=right;verticalAlign=middle;resizable=0;points=[];autosize=1;strokeColor=none;fillColor=none;" vertex="1" parent="1">
          <mxGeometry x="540" y="110" width="80" height="30" as="geometry" />
        </mxCell>
        <mxCell id="h-LrLMW3Vg-HoDTsd1an-58" value="" style="ellipse;whiteSpace=wrap;html=1;fillColor=#ffffff;" vertex="1" parent="1">
          <mxGeometry x="620" y="90" width="20" height="20" as="geometry" />
        </mxCell>
        <mxCell id="h-LrLMW3Vg-HoDTsd1an-59" value="NUMERO" style="text;html=1;align=right;verticalAlign=middle;resizable=0;points=[];autosize=1;strokeColor=none;fillColor=none;" vertex="1" parent="1">
          <mxGeometry x="540" y="85" width="80" height="30" as="geometry" />
        </mxCell>
        <mxCell id="h-LrLMW3Vg-HoDTsd1an-60" style="edgeStyle=orthogonalEdgeStyle;shape=connector;curved=1;rounded=0;orthogonalLoop=1;jettySize=auto;html=1;entryX=0.187;entryY=0.914;entryDx=0;entryDy=0;entryPerimeter=0;strokeColor=default;align=center;verticalAlign=middle;fontFamily=Helvetica;fontSize=11;fontColor=default;labelBackgroundColor=default;endArrow=none;endFill=0;" edge="1" parent="1" source="h-LrLMW3Vg-HoDTsd1an-56" target="h-LrLMW3Vg-HoDTsd1an-50">
          <mxGeometry relative="1" as="geometry" />
        </mxCell>
        <mxCell id="h-LrLMW3Vg-HoDTsd1an-61" style="edgeStyle=orthogonalEdgeStyle;shape=connector;curved=1;rounded=0;orthogonalLoop=1;jettySize=auto;html=1;entryX=0.011;entryY=0.638;entryDx=0;entryDy=0;entryPerimeter=0;strokeColor=default;align=center;verticalAlign=middle;fontFamily=Helvetica;fontSize=11;fontColor=default;labelBackgroundColor=default;endArrow=none;endFill=0;" edge="1" parent="1" source="h-LrLMW3Vg-HoDTsd1an-58" target="h-LrLMW3Vg-HoDTsd1an-50">
          <mxGeometry relative="1" as="geometry" />
        </mxCell>
        <mxCell id="h-LrLMW3Vg-HoDTsd1an-62" style="edgeStyle=orthogonalEdgeStyle;shape=connector;curved=1;rounded=0;orthogonalLoop=1;jettySize=auto;html=1;entryX=0.215;entryY=0.057;entryDx=0;entryDy=0;entryPerimeter=0;strokeColor=default;align=center;verticalAlign=middle;fontFamily=Helvetica;fontSize=11;fontColor=default;labelBackgroundColor=default;endArrow=none;endFill=0;" edge="1" parent="1" source="h-LrLMW3Vg-HoDTsd1an-54" target="h-LrLMW3Vg-HoDTsd1an-50">
          <mxGeometry relative="1" as="geometry" />
        </mxCell>
        <mxCell id="h-LrLMW3Vg-HoDTsd1an-67" value="" style="edgeStyle=orthogonalEdgeStyle;shape=connector;curved=1;rounded=0;orthogonalLoop=1;jettySize=auto;html=1;strokeColor=default;align=center;verticalAlign=middle;fontFamily=Helvetica;fontSize=11;fontColor=default;labelBackgroundColor=default;endArrow=none;endFill=0;" edge="1" parent="1" source="h-LrLMW3Vg-HoDTsd1an-65" target="h-LrLMW3Vg-HoDTsd1an-1">
          <mxGeometry relative="1" as="geometry" />
        </mxCell>
        <mxCell id="h-LrLMW3Vg-HoDTsd1an-69" value="(0,N)" style="edgeLabel;html=1;align=center;verticalAlign=middle;resizable=0;points=[];fontFamily=Helvetica;fontSize=11;fontColor=default;labelBackgroundColor=default;" vertex="1" connectable="0" parent="h-LrLMW3Vg-HoDTsd1an-67">
          <mxGeometry x="0.3056" y="-1" relative="1" as="geometry">
            <mxPoint as="offset" />
          </mxGeometry>
        </mxCell>
        <mxCell id="h-LrLMW3Vg-HoDTsd1an-65" value="POSEE" style="rhombus;whiteSpace=wrap;html=1;fontFamily=Helvetica;fontSize=11;fontColor=default;labelBackgroundColor=default;" vertex="1" parent="1">
          <mxGeometry x="462" y="162.5" width="110" height="60" as="geometry" />
        </mxCell>
        <mxCell id="h-LrLMW3Vg-HoDTsd1an-75" style="edgeStyle=orthogonalEdgeStyle;shape=connector;curved=1;rounded=0;orthogonalLoop=1;jettySize=auto;html=1;entryX=0.5;entryY=0;entryDx=0;entryDy=0;strokeColor=default;align=center;verticalAlign=middle;fontFamily=Helvetica;fontSize=11;fontColor=default;labelBackgroundColor=default;endArrow=none;endFill=0;" edge="1" parent="1" source="h-LrLMW3Vg-HoDTsd1an-70" target="h-LrLMW3Vg-HoDTsd1an-65">
          <mxGeometry relative="1" as="geometry">
            <Array as="points">
              <mxPoint x="510" y="137" />
              <mxPoint x="510" y="143" />
              <mxPoint x="517" y="143" />
            </Array>
          </mxGeometry>
        </mxCell>
        <mxCell id="h-LrLMW3Vg-HoDTsd1an-70" value="" style="ellipse;whiteSpace=wrap;html=1;fillColor=#ffffff;" vertex="1" parent="1">
          <mxGeometry x="470" y="127.5" width="20" height="20" as="geometry" />
        </mxCell>
        <mxCell id="h-LrLMW3Vg-HoDTsd1an-71" value="FECHA_FIN(0,1)" style="text;html=1;align=right;verticalAlign=middle;resizable=0;points=[];autosize=1;strokeColor=none;fillColor=none;" vertex="1" parent="1">
          <mxGeometry x="360" y="122.5" width="110" height="30" as="geometry" />
        </mxCell>
        <mxCell id="h-LrLMW3Vg-HoDTsd1an-72" value="" style="ellipse;whiteSpace=wrap;html=1;fillColor=#ffffff;" vertex="1" parent="1">
          <mxGeometry x="470" y="102.5" width="20" height="20" as="geometry" />
        </mxCell>
        <mxCell id="h-LrLMW3Vg-HoDTsd1an-73" value="FECHA_INICIO" style="text;html=1;align=right;verticalAlign=middle;resizable=0;points=[];autosize=1;strokeColor=none;fillColor=none;" vertex="1" parent="1">
          <mxGeometry x="360" y="97.5" width="110" height="30" as="geometry" />
        </mxCell>
        <mxCell id="h-LrLMW3Vg-HoDTsd1an-74" style="edgeStyle=orthogonalEdgeStyle;shape=connector;curved=1;rounded=0;orthogonalLoop=1;jettySize=auto;html=1;entryX=0.679;entryY=0.201;entryDx=0;entryDy=0;entryPerimeter=0;strokeColor=default;align=center;verticalAlign=middle;fontFamily=Helvetica;fontSize=11;fontColor=default;labelBackgroundColor=default;endArrow=none;endFill=0;" edge="1" parent="1" source="h-LrLMW3Vg-HoDTsd1an-72" target="h-LrLMW3Vg-HoDTsd1an-65">
          <mxGeometry relative="1" as="geometry">
            <Array as="points">
              <mxPoint x="537" y="110" />
            </Array>
          </mxGeometry>
        </mxCell>
        <mxCell id="h-LrLMW3Vg-HoDTsd1an-76" value="CARRERA" style="rounded=1;whiteSpace=wrap;html=1;" vertex="1" parent="1">
          <mxGeometry x="955" y="280" width="120" height="60" as="geometry" />
        </mxCell>
        <mxCell id="h-LrLMW3Vg-HoDTsd1an-77" value="" style="ellipse;whiteSpace=wrap;html=1;fillColor=#000000;" vertex="1" parent="1">
          <mxGeometry x="1095" y="275" width="20" height="20" as="geometry" />
        </mxCell>
        <mxCell id="h-LrLMW3Vg-HoDTsd1an-78" value="&lt;div align=&quot;left&quot;&gt;CODIGO&lt;/div&gt;" style="text;html=1;align=left;verticalAlign=middle;resizable=0;points=[];autosize=1;strokeColor=none;fillColor=none;" vertex="1" parent="1">
          <mxGeometry x="1115" y="270" width="70" height="30" as="geometry" />
        </mxCell>
        <mxCell id="h-LrLMW3Vg-HoDTsd1an-79" value="" style="edgeStyle=orthogonalEdgeStyle;shape=connector;curved=1;rounded=0;orthogonalLoop=1;jettySize=auto;html=1;strokeColor=default;align=center;verticalAlign=middle;fontFamily=Helvetica;fontSize=11;fontColor=default;labelBackgroundColor=default;endArrow=none;endFill=0;" edge="1" parent="1" source="h-LrLMW3Vg-HoDTsd1an-80" target="h-LrLMW3Vg-HoDTsd1an-76">
          <mxGeometry relative="1" as="geometry" />
        </mxCell>
        <mxCell id="h-LrLMW3Vg-HoDTsd1an-80" value="" style="ellipse;whiteSpace=wrap;html=1;fillColor=#000000;" vertex="1" parent="1">
          <mxGeometry x="1095" y="300" width="20" height="20" as="geometry" />
        </mxCell>
        <mxCell id="h-LrLMW3Vg-HoDTsd1an-81" value="NOMBRE" style="text;html=1;align=left;verticalAlign=middle;resizable=0;points=[];autosize=1;strokeColor=none;fillColor=none;" vertex="1" parent="1">
          <mxGeometry x="1115" y="295" width="80" height="30" as="geometry" />
        </mxCell>
        <mxCell id="h-LrLMW3Vg-HoDTsd1an-82" value="" style="edgeStyle=orthogonalEdgeStyle;shape=connector;curved=1;rounded=0;orthogonalLoop=1;jettySize=auto;html=1;strokeColor=default;align=center;verticalAlign=middle;fontFamily=Helvetica;fontSize=11;fontColor=default;labelBackgroundColor=default;endArrow=none;endFill=0;entryX=0.993;entryY=0.85;entryDx=0;entryDy=0;entryPerimeter=0;" edge="1" parent="1" source="h-LrLMW3Vg-HoDTsd1an-83" target="h-LrLMW3Vg-HoDTsd1an-76">
          <mxGeometry relative="1" as="geometry" />
        </mxCell>
        <mxCell id="h-LrLMW3Vg-HoDTsd1an-83" value="" style="ellipse;whiteSpace=wrap;html=1;" vertex="1" parent="1">
          <mxGeometry x="1095" y="325" width="20" height="20" as="geometry" />
        </mxCell>
        <mxCell id="h-LrLMW3Vg-HoDTsd1an-84" value="ANIO_CREACION" style="text;html=1;align=left;verticalAlign=middle;resizable=0;points=[];autosize=1;strokeColor=none;fillColor=none;" vertex="1" parent="1">
          <mxGeometry x="1115" y="320" width="120" height="30" as="geometry" />
        </mxCell>
        <mxCell id="h-LrLMW3Vg-HoDTsd1an-85" style="edgeStyle=orthogonalEdgeStyle;rounded=0;orthogonalLoop=1;jettySize=auto;html=1;entryX=1.003;entryY=0.11;entryDx=0;entryDy=0;entryPerimeter=0;curved=1;endArrow=none;endFill=0;" edge="1" parent="1" source="h-LrLMW3Vg-HoDTsd1an-77" target="h-LrLMW3Vg-HoDTsd1an-76">
          <mxGeometry relative="1" as="geometry" />
        </mxCell>
        <mxCell id="h-LrLMW3Vg-HoDTsd1an-86" value="" style="ellipse;whiteSpace=wrap;html=1;" vertex="1" parent="1">
          <mxGeometry x="1095" y="350" width="20" height="20" as="geometry" />
        </mxCell>
        <mxCell id="h-LrLMW3Vg-HoDTsd1an-87" value="DURACION" style="text;html=1;align=left;verticalAlign=middle;resizable=0;points=[];autosize=1;strokeColor=none;fillColor=none;" vertex="1" parent="1">
          <mxGeometry x="1115" y="345" width="90" height="30" as="geometry" />
        </mxCell>
        <mxCell id="h-LrLMW3Vg-HoDTsd1an-88" style="edgeStyle=orthogonalEdgeStyle;shape=connector;curved=1;rounded=0;orthogonalLoop=1;jettySize=auto;html=1;entryX=0.923;entryY=1.05;entryDx=0;entryDy=0;entryPerimeter=0;strokeColor=default;align=center;verticalAlign=middle;fontFamily=Helvetica;fontSize=11;fontColor=default;labelBackgroundColor=default;endArrow=none;endFill=0;" edge="1" parent="1" source="h-LrLMW3Vg-HoDTsd1an-86" target="h-LrLMW3Vg-HoDTsd1an-76">
          <mxGeometry relative="1" as="geometry" />
        </mxCell>
        <mxCell id="h-LrLMW3Vg-HoDTsd1an-90" value="" style="edgeStyle=orthogonalEdgeStyle;shape=connector;curved=1;rounded=0;orthogonalLoop=1;jettySize=auto;html=1;strokeColor=default;align=center;verticalAlign=middle;fontFamily=Helvetica;fontSize=11;fontColor=default;labelBackgroundColor=default;endArrow=none;endFill=0;" edge="1" parent="1" source="h-LrLMW3Vg-HoDTsd1an-89" target="h-LrLMW3Vg-HoDTsd1an-76">
          <mxGeometry relative="1" as="geometry" />
        </mxCell>
        <mxCell id="h-LrLMW3Vg-HoDTsd1an-93" value="(1,1)" style="edgeLabel;html=1;align=center;verticalAlign=middle;resizable=0;points=[];fontFamily=Helvetica;fontSize=11;fontColor=default;labelBackgroundColor=default;" vertex="1" connectable="0" parent="h-LrLMW3Vg-HoDTsd1an-90">
          <mxGeometry x="0.0909" relative="1" as="geometry">
            <mxPoint as="offset" />
          </mxGeometry>
        </mxCell>
        <mxCell id="h-LrLMW3Vg-HoDTsd1an-91" style="edgeStyle=orthogonalEdgeStyle;shape=connector;curved=1;rounded=0;orthogonalLoop=1;jettySize=auto;html=1;entryX=0.75;entryY=1;entryDx=0;entryDy=0;strokeColor=default;align=center;verticalAlign=middle;fontFamily=Helvetica;fontSize=11;fontColor=default;labelBackgroundColor=default;endArrow=none;endFill=0;" edge="1" parent="1" source="h-LrLMW3Vg-HoDTsd1an-89" target="h-LrLMW3Vg-HoDTsd1an-1">
          <mxGeometry relative="1" as="geometry" />
        </mxCell>
        <mxCell id="h-LrLMW3Vg-HoDTsd1an-92" value="(0,N)" style="edgeLabel;html=1;align=center;verticalAlign=middle;resizable=0;points=[];fontFamily=Helvetica;fontSize=11;fontColor=default;labelBackgroundColor=default;" vertex="1" connectable="0" parent="h-LrLMW3Vg-HoDTsd1an-91">
          <mxGeometry x="0.0755" y="1" relative="1" as="geometry">
            <mxPoint as="offset" />
          </mxGeometry>
        </mxCell>
        <mxCell id="h-LrLMW3Vg-HoDTsd1an-89" value="OFRECE" style="rhombus;whiteSpace=wrap;html=1;fontFamily=Helvetica;fontSize=11;fontColor=default;labelBackgroundColor=default;" vertex="1" parent="1">
          <mxGeometry x="790" y="280" width="110" height="60" as="geometry" />
        </mxCell>
        <mxCell id="h-LrLMW3Vg-HoDTsd1an-106" value="PERSONA" style="rounded=1;whiteSpace=wrap;html=1;" vertex="1" parent="1">
          <mxGeometry x="480" y="742.5" width="120" height="60" as="geometry" />
        </mxCell>
        <mxCell id="h-LrLMW3Vg-HoDTsd1an-107" style="edgeStyle=orthogonalEdgeStyle;shape=connector;curved=1;rounded=0;orthogonalLoop=1;jettySize=auto;html=1;entryX=0;entryY=0;entryDx=0;entryDy=0;strokeColor=default;align=center;verticalAlign=middle;fontFamily=Helvetica;fontSize=11;fontColor=default;labelBackgroundColor=default;endArrow=none;endFill=0;" edge="1" parent="1" source="h-LrLMW3Vg-HoDTsd1an-108" target="h-LrLMW3Vg-HoDTsd1an-106">
          <mxGeometry relative="1" as="geometry" />
        </mxCell>
        <mxCell id="h-LrLMW3Vg-HoDTsd1an-108" value="" style="ellipse;whiteSpace=wrap;html=1;fillColor=#000000;" vertex="1" parent="1">
          <mxGeometry x="440" y="725" width="20" height="20" as="geometry" />
        </mxCell>
        <mxCell id="h-LrLMW3Vg-HoDTsd1an-109" value="DNI" style="text;html=1;align=right;verticalAlign=middle;resizable=0;points=[];autosize=1;strokeColor=none;fillColor=none;" vertex="1" parent="1">
          <mxGeometry x="400" y="720" width="40" height="30" as="geometry" />
        </mxCell>
        <mxCell id="h-LrLMW3Vg-HoDTsd1an-110" value="" style="edgeStyle=orthogonalEdgeStyle;shape=connector;curved=1;rounded=0;orthogonalLoop=1;jettySize=auto;html=1;strokeColor=default;align=center;verticalAlign=middle;fontFamily=Helvetica;fontSize=11;fontColor=default;labelBackgroundColor=default;endArrow=none;endFill=0;entryX=0;entryY=0.25;entryDx=0;entryDy=0;" edge="1" parent="1" source="h-LrLMW3Vg-HoDTsd1an-111" target="h-LrLMW3Vg-HoDTsd1an-106">
          <mxGeometry relative="1" as="geometry" />
        </mxCell>
        <mxCell id="h-LrLMW3Vg-HoDTsd1an-111" value="" style="ellipse;whiteSpace=wrap;html=1;fillColor=#ffffff;" vertex="1" parent="1">
          <mxGeometry x="440" y="750" width="20" height="20" as="geometry" />
        </mxCell>
        <mxCell id="h-LrLMW3Vg-HoDTsd1an-112" value="NOMBRE" style="text;html=1;align=right;verticalAlign=middle;resizable=0;points=[];autosize=1;strokeColor=none;fillColor=none;" vertex="1" parent="1">
          <mxGeometry x="360" y="745" width="80" height="30" as="geometry" />
        </mxCell>
        <mxCell id="h-LrLMW3Vg-HoDTsd1an-113" value="" style="edgeStyle=orthogonalEdgeStyle;shape=connector;curved=1;rounded=0;orthogonalLoop=1;jettySize=auto;html=1;strokeColor=default;align=center;verticalAlign=middle;fontFamily=Helvetica;fontSize=11;fontColor=default;labelBackgroundColor=default;endArrow=none;endFill=0;entryX=0;entryY=0.75;entryDx=0;entryDy=0;" edge="1" parent="1" source="h-LrLMW3Vg-HoDTsd1an-114" target="h-LrLMW3Vg-HoDTsd1an-106">
          <mxGeometry relative="1" as="geometry" />
        </mxCell>
        <mxCell id="h-LrLMW3Vg-HoDTsd1an-114" value="" style="ellipse;whiteSpace=wrap;html=1;fillColor=#ffffff;" vertex="1" parent="1">
          <mxGeometry x="440" y="775" width="20" height="20" as="geometry" />
        </mxCell>
        <mxCell id="h-LrLMW3Vg-HoDTsd1an-115" value="APELLIDO" style="text;html=1;align=right;verticalAlign=middle;resizable=0;points=[];autosize=1;strokeColor=none;fillColor=none;" vertex="1" parent="1">
          <mxGeometry x="360" y="770" width="80" height="30" as="geometry" />
        </mxCell>
        <mxCell id="h-LrLMW3Vg-HoDTsd1an-116" value="" style="ellipse;whiteSpace=wrap;html=1;fillColor=#ffffff;" vertex="1" parent="1">
          <mxGeometry x="440" y="800" width="20" height="20" as="geometry" />
        </mxCell>
        <mxCell id="h-LrLMW3Vg-HoDTsd1an-117" value="FECHA_NACIMIENTO" style="text;html=1;align=right;verticalAlign=middle;resizable=0;points=[];autosize=1;strokeColor=none;fillColor=none;" vertex="1" parent="1">
          <mxGeometry x="300" y="795" width="140" height="30" as="geometry" />
        </mxCell>
        <mxCell id="h-LrLMW3Vg-HoDTsd1an-118" style="edgeStyle=orthogonalEdgeStyle;shape=connector;curved=1;rounded=0;orthogonalLoop=1;jettySize=auto;html=1;entryX=0.097;entryY=0.975;entryDx=0;entryDy=0;entryPerimeter=0;strokeColor=default;align=center;verticalAlign=middle;fontFamily=Helvetica;fontSize=11;fontColor=default;labelBackgroundColor=default;endArrow=none;endFill=0;" edge="1" parent="1" source="h-LrLMW3Vg-HoDTsd1an-116" target="h-LrLMW3Vg-HoDTsd1an-106">
          <mxGeometry relative="1" as="geometry" />
        </mxCell>
        <mxCell id="h-LrLMW3Vg-HoDTsd1an-168" style="edgeStyle=orthogonalEdgeStyle;shape=connector;curved=1;rounded=0;orthogonalLoop=1;jettySize=auto;html=1;entryX=0.5;entryY=1;entryDx=0;entryDy=0;strokeColor=default;align=center;verticalAlign=middle;fontFamily=Helvetica;fontSize=11;fontColor=default;labelBackgroundColor=default;endArrow=none;endFill=0;" edge="1" parent="1" source="h-LrLMW3Vg-HoDTsd1an-119" target="h-LrLMW3Vg-HoDTsd1an-167">
          <mxGeometry relative="1" as="geometry">
            <Array as="points">
              <mxPoint x="340" y="440" />
              <mxPoint x="485" y="440" />
              <mxPoint x="485" y="350" />
              <mxPoint x="555" y="350" />
            </Array>
          </mxGeometry>
        </mxCell>
        <mxCell id="h-LrLMW3Vg-HoDTsd1an-198" value="(1,N)" style="edgeLabel;html=1;align=center;verticalAlign=middle;resizable=0;points=[];fontFamily=Helvetica;fontSize=11;fontColor=default;labelBackgroundColor=default;" vertex="1" connectable="0" parent="h-LrLMW3Vg-HoDTsd1an-168">
          <mxGeometry x="-0.402" y="-5" relative="1" as="geometry">
            <mxPoint as="offset" />
          </mxGeometry>
        </mxCell>
        <mxCell id="h-LrLMW3Vg-HoDTsd1an-180" style="edgeStyle=orthogonalEdgeStyle;shape=connector;curved=1;rounded=0;orthogonalLoop=1;jettySize=auto;html=1;entryX=0;entryY=0.5;entryDx=0;entryDy=0;strokeColor=default;align=center;verticalAlign=middle;fontFamily=Helvetica;fontSize=11;fontColor=default;labelBackgroundColor=default;endArrow=none;endFill=0;" edge="1" parent="1" source="h-LrLMW3Vg-HoDTsd1an-119" target="h-LrLMW3Vg-HoDTsd1an-179">
          <mxGeometry relative="1" as="geometry" />
        </mxCell>
        <mxCell id="h-LrLMW3Vg-HoDTsd1an-197" value="(0,N)" style="edgeLabel;html=1;align=center;verticalAlign=middle;resizable=0;points=[];fontFamily=Helvetica;fontSize=11;fontColor=default;labelBackgroundColor=default;" vertex="1" connectable="0" parent="h-LrLMW3Vg-HoDTsd1an-180">
          <mxGeometry x="-0.1749" relative="1" as="geometry">
            <mxPoint as="offset" />
          </mxGeometry>
        </mxCell>
        <mxCell id="h-LrLMW3Vg-HoDTsd1an-202" style="edgeStyle=orthogonalEdgeStyle;shape=connector;curved=1;rounded=0;orthogonalLoop=1;jettySize=auto;html=1;strokeColor=default;align=center;verticalAlign=middle;fontFamily=Helvetica;fontSize=11;fontColor=default;labelBackgroundColor=default;endArrow=none;endFill=0;" edge="1" parent="1" source="h-LrLMW3Vg-HoDTsd1an-119">
          <mxGeometry relative="1" as="geometry">
            <mxPoint x="540" y="740" as="targetPoint" />
            <Array as="points">
              <mxPoint x="402" y="630" />
              <mxPoint x="541" y="630" />
            </Array>
          </mxGeometry>
        </mxCell>
        <mxCell id="h-LrLMW3Vg-HoDTsd1an-119" value="ESTUDIANTE" style="rounded=1;whiteSpace=wrap;html=1;" vertex="1" parent="1">
          <mxGeometry x="342" y="557.5" width="120" height="60" as="geometry" />
        </mxCell>
        <mxCell id="h-LrLMW3Vg-HoDTsd1an-144" style="edgeStyle=orthogonalEdgeStyle;shape=connector;curved=1;rounded=0;orthogonalLoop=1;jettySize=auto;html=1;entryX=0;entryY=0.5;entryDx=0;entryDy=0;strokeColor=default;align=center;verticalAlign=middle;fontFamily=Helvetica;fontSize=11;fontColor=default;labelBackgroundColor=default;endArrow=none;endFill=0;" edge="1" parent="1" source="h-LrLMW3Vg-HoDTsd1an-131" target="h-LrLMW3Vg-HoDTsd1an-143">
          <mxGeometry relative="1" as="geometry" />
        </mxCell>
        <mxCell id="h-LrLMW3Vg-HoDTsd1an-165" value="(0,N)" style="edgeLabel;html=1;align=center;verticalAlign=middle;resizable=0;points=[];fontFamily=Helvetica;fontSize=11;fontColor=default;labelBackgroundColor=default;" vertex="1" connectable="0" parent="h-LrLMW3Vg-HoDTsd1an-144">
          <mxGeometry x="-0.6019" y="-2" relative="1" as="geometry">
            <mxPoint as="offset" />
          </mxGeometry>
        </mxCell>
        <mxCell id="h-LrLMW3Vg-HoDTsd1an-201" style="edgeStyle=orthogonalEdgeStyle;shape=connector;curved=1;rounded=0;orthogonalLoop=1;jettySize=auto;html=1;entryX=0.5;entryY=0;entryDx=0;entryDy=0;strokeColor=default;align=center;verticalAlign=middle;fontFamily=Helvetica;fontSize=11;fontColor=default;labelBackgroundColor=default;endArrow=classic;endFill=1;" edge="1" parent="1" source="h-LrLMW3Vg-HoDTsd1an-131" target="h-LrLMW3Vg-HoDTsd1an-106">
          <mxGeometry relative="1" as="geometry">
            <Array as="points">
              <mxPoint x="700" y="640" />
              <mxPoint x="540" y="640" />
            </Array>
          </mxGeometry>
        </mxCell>
        <mxCell id="h-LrLMW3Vg-HoDTsd1an-131" value="PERSONAL" style="rounded=1;whiteSpace=wrap;html=1;" vertex="1" parent="1">
          <mxGeometry x="640" y="557.5" width="120" height="60" as="geometry" />
        </mxCell>
        <mxCell id="h-LrLMW3Vg-HoDTsd1an-140" value="" style="ellipse;whiteSpace=wrap;html=1;" vertex="1" parent="1">
          <mxGeometry x="780" y="627.5" width="20" height="20" as="geometry" />
        </mxCell>
        <mxCell id="h-LrLMW3Vg-HoDTsd1an-141" value="FECHA_ALTA" style="text;html=1;align=left;verticalAlign=middle;resizable=0;points=[];autosize=1;strokeColor=none;fillColor=none;" vertex="1" parent="1">
          <mxGeometry x="800" y="622.5" width="100" height="30" as="geometry" />
        </mxCell>
        <mxCell id="h-LrLMW3Vg-HoDTsd1an-142" style="edgeStyle=orthogonalEdgeStyle;shape=connector;curved=1;rounded=0;orthogonalLoop=1;jettySize=auto;html=1;entryX=0.923;entryY=1.05;entryDx=0;entryDy=0;entryPerimeter=0;strokeColor=default;align=center;verticalAlign=middle;fontFamily=Helvetica;fontSize=11;fontColor=default;labelBackgroundColor=default;endArrow=none;endFill=0;" edge="1" parent="1" source="h-LrLMW3Vg-HoDTsd1an-140" target="h-LrLMW3Vg-HoDTsd1an-131">
          <mxGeometry relative="1" as="geometry" />
        </mxCell>
        <mxCell id="h-LrLMW3Vg-HoDTsd1an-158" value="" style="edgeStyle=orthogonalEdgeStyle;shape=connector;curved=1;rounded=0;orthogonalLoop=1;jettySize=auto;html=1;strokeColor=default;align=center;verticalAlign=middle;fontFamily=Helvetica;fontSize=11;fontColor=default;labelBackgroundColor=default;endArrow=none;endFill=0;" edge="1" parent="1" source="h-LrLMW3Vg-HoDTsd1an-143" target="h-LrLMW3Vg-HoDTsd1an-145">
          <mxGeometry relative="1" as="geometry" />
        </mxCell>
        <mxCell id="h-LrLMW3Vg-HoDTsd1an-166" value="(0,N)" style="edgeLabel;html=1;align=center;verticalAlign=middle;resizable=0;points=[];fontFamily=Helvetica;fontSize=11;fontColor=default;labelBackgroundColor=default;" vertex="1" connectable="0" parent="h-LrLMW3Vg-HoDTsd1an-158">
          <mxGeometry x="-0.0059" relative="1" as="geometry">
            <mxPoint as="offset" />
          </mxGeometry>
        </mxCell>
        <mxCell id="h-LrLMW3Vg-HoDTsd1an-143" value="DESEMPEÑA" style="rhombus;whiteSpace=wrap;html=1;fontFamily=Helvetica;fontSize=11;fontColor=default;labelBackgroundColor=default;" vertex="1" parent="1">
          <mxGeometry x="920" y="602.5" width="110" height="60" as="geometry" />
        </mxCell>
        <mxCell id="h-LrLMW3Vg-HoDTsd1an-145" value="CARGO" style="rounded=1;whiteSpace=wrap;html=1;" vertex="1" parent="1">
          <mxGeometry x="1100" y="602.5" width="120" height="60" as="geometry" />
        </mxCell>
        <mxCell id="h-LrLMW3Vg-HoDTsd1an-148" value="" style="edgeStyle=orthogonalEdgeStyle;shape=connector;curved=1;rounded=0;orthogonalLoop=1;jettySize=auto;html=1;strokeColor=default;align=center;verticalAlign=middle;fontFamily=Helvetica;fontSize=11;fontColor=default;labelBackgroundColor=default;endArrow=none;endFill=0;" edge="1" parent="1" source="h-LrLMW3Vg-HoDTsd1an-149" target="h-LrLMW3Vg-HoDTsd1an-145">
          <mxGeometry relative="1" as="geometry" />
        </mxCell>
        <mxCell id="h-LrLMW3Vg-HoDTsd1an-149" value="" style="ellipse;whiteSpace=wrap;html=1;fillColor=#000000;" vertex="1" parent="1">
          <mxGeometry x="1240" y="622.5" width="20" height="20" as="geometry" />
        </mxCell>
        <mxCell id="h-LrLMW3Vg-HoDTsd1an-150" value="NOMBRE" style="text;html=1;align=left;verticalAlign=middle;resizable=0;points=[];autosize=1;strokeColor=none;fillColor=none;" vertex="1" parent="1">
          <mxGeometry x="1260" y="617.5" width="80" height="30" as="geometry" />
        </mxCell>
        <mxCell id="h-LrLMW3Vg-HoDTsd1an-151" value="" style="edgeStyle=orthogonalEdgeStyle;shape=connector;curved=1;rounded=0;orthogonalLoop=1;jettySize=auto;html=1;strokeColor=default;align=center;verticalAlign=middle;fontFamily=Helvetica;fontSize=11;fontColor=default;labelBackgroundColor=default;endArrow=none;endFill=0;entryX=0.993;entryY=0.85;entryDx=0;entryDy=0;entryPerimeter=0;" edge="1" parent="1" source="h-LrLMW3Vg-HoDTsd1an-152" target="h-LrLMW3Vg-HoDTsd1an-145">
          <mxGeometry relative="1" as="geometry" />
        </mxCell>
        <mxCell id="h-LrLMW3Vg-HoDTsd1an-152" value="" style="ellipse;whiteSpace=wrap;html=1;" vertex="1" parent="1">
          <mxGeometry x="1240" y="647.5" width="20" height="20" as="geometry" />
        </mxCell>
        <mxCell id="h-LrLMW3Vg-HoDTsd1an-153" value="TIPO" style="text;html=1;align=left;verticalAlign=middle;resizable=0;points=[];autosize=1;strokeColor=none;fillColor=none;" vertex="1" parent="1">
          <mxGeometry x="1260" y="642.5" width="50" height="30" as="geometry" />
        </mxCell>
        <mxCell id="h-LrLMW3Vg-HoDTsd1an-159" value="" style="ellipse;whiteSpace=wrap;html=1;fillColor=#ffffff;" vertex="1" parent="1">
          <mxGeometry x="950" y="577.5" width="20" height="20" as="geometry" />
        </mxCell>
        <mxCell id="h-LrLMW3Vg-HoDTsd1an-160" value="FECHA_FIN(0,1)" style="text;html=1;align=right;verticalAlign=middle;resizable=0;points=[];autosize=1;strokeColor=none;fillColor=none;" vertex="1" parent="1">
          <mxGeometry x="840" y="572.5" width="110" height="30" as="geometry" />
        </mxCell>
        <mxCell id="h-LrLMW3Vg-HoDTsd1an-161" value="" style="ellipse;whiteSpace=wrap;html=1;fillColor=#ffffff;" vertex="1" parent="1">
          <mxGeometry x="950" y="552.5" width="20" height="20" as="geometry" />
        </mxCell>
        <mxCell id="h-LrLMW3Vg-HoDTsd1an-162" value="FECHA_INICIO" style="text;html=1;align=right;verticalAlign=middle;resizable=0;points=[];autosize=1;strokeColor=none;fillColor=none;" vertex="1" parent="1">
          <mxGeometry x="840" y="547.5" width="110" height="30" as="geometry" />
        </mxCell>
        <mxCell id="h-LrLMW3Vg-HoDTsd1an-163" style="edgeStyle=orthogonalEdgeStyle;shape=connector;curved=1;rounded=0;orthogonalLoop=1;jettySize=auto;html=1;entryX=0.833;entryY=0.294;entryDx=0;entryDy=0;entryPerimeter=0;strokeColor=default;align=center;verticalAlign=middle;fontFamily=Helvetica;fontSize=11;fontColor=default;labelBackgroundColor=default;endArrow=none;endFill=0;" edge="1" parent="1" target="h-LrLMW3Vg-HoDTsd1an-143">
          <mxGeometry relative="1" as="geometry">
            <mxPoint x="970" y="562.5" as="sourcePoint" />
            <Array as="points">
              <mxPoint x="990" y="562.5" />
              <mxPoint x="990" y="582.5" />
              <mxPoint x="1012" y="582.5" />
            </Array>
          </mxGeometry>
        </mxCell>
        <mxCell id="h-LrLMW3Vg-HoDTsd1an-164" style="edgeStyle=orthogonalEdgeStyle;shape=connector;curved=1;rounded=0;orthogonalLoop=1;jettySize=auto;html=1;entryX=0.614;entryY=0.114;entryDx=0;entryDy=0;entryPerimeter=0;strokeColor=default;align=center;verticalAlign=middle;fontFamily=Helvetica;fontSize=11;fontColor=default;labelBackgroundColor=default;endArrow=none;endFill=0;" edge="1" parent="1" source="h-LrLMW3Vg-HoDTsd1an-159" target="h-LrLMW3Vg-HoDTsd1an-143">
          <mxGeometry relative="1" as="geometry">
            <Array as="points">
              <mxPoint x="988" y="592.5" />
            </Array>
          </mxGeometry>
        </mxCell>
        <mxCell id="h-LrLMW3Vg-HoDTsd1an-169" style="edgeStyle=orthogonalEdgeStyle;shape=connector;curved=1;rounded=0;orthogonalLoop=1;jettySize=auto;html=1;entryX=0.5;entryY=1;entryDx=0;entryDy=0;strokeColor=default;align=center;verticalAlign=middle;fontFamily=Helvetica;fontSize=11;fontColor=default;labelBackgroundColor=default;endArrow=none;endFill=0;" edge="1" parent="1" source="h-LrLMW3Vg-HoDTsd1an-167" target="h-LrLMW3Vg-HoDTsd1an-1">
          <mxGeometry relative="1" as="geometry" />
        </mxCell>
        <mxCell id="h-LrLMW3Vg-HoDTsd1an-199" value="(0,N)" style="edgeLabel;html=1;align=center;verticalAlign=middle;resizable=0;points=[];fontFamily=Helvetica;fontSize=11;fontColor=default;labelBackgroundColor=default;" vertex="1" connectable="0" parent="h-LrLMW3Vg-HoDTsd1an-169">
          <mxGeometry x="0.6898" y="9" relative="1" as="geometry">
            <mxPoint as="offset" />
          </mxGeometry>
        </mxCell>
        <mxCell id="h-LrLMW3Vg-HoDTsd1an-167" value="ESTUDIA_EN" style="rhombus;whiteSpace=wrap;html=1;fontFamily=Helvetica;fontSize=11;fontColor=default;labelBackgroundColor=default;" vertex="1" parent="1">
          <mxGeometry x="500" y="265" width="110" height="60" as="geometry" />
        </mxCell>
        <mxCell id="h-LrLMW3Vg-HoDTsd1an-170" value="" style="ellipse;whiteSpace=wrap;html=1;fillColor=#ffffff;" vertex="1" parent="1">
          <mxGeometry x="460" y="270" width="20" height="20" as="geometry" />
        </mxCell>
        <mxCell id="h-LrLMW3Vg-HoDTsd1an-171" value="LEGAJO" style="text;html=1;align=right;verticalAlign=middle;resizable=0;points=[];autosize=1;strokeColor=none;fillColor=none;" vertex="1" parent="1">
          <mxGeometry x="390" y="265" width="70" height="30" as="geometry" />
        </mxCell>
        <mxCell id="h-LrLMW3Vg-HoDTsd1an-176" style="edgeStyle=orthogonalEdgeStyle;shape=connector;curved=1;rounded=0;orthogonalLoop=1;jettySize=auto;html=1;entryX=0.5;entryY=0;entryDx=0;entryDy=0;strokeColor=default;align=center;verticalAlign=middle;fontFamily=Helvetica;fontSize=11;fontColor=default;labelBackgroundColor=default;endArrow=none;endFill=0;" edge="1" parent="1" source="h-LrLMW3Vg-HoDTsd1an-172" target="h-LrLMW3Vg-HoDTsd1an-167">
          <mxGeometry relative="1" as="geometry" />
        </mxCell>
        <mxCell id="h-LrLMW3Vg-HoDTsd1an-172" value="" style="ellipse;whiteSpace=wrap;html=1;fillColor=#ffffff;" vertex="1" parent="1">
          <mxGeometry x="460" y="245" width="20" height="20" as="geometry" />
        </mxCell>
        <mxCell id="h-LrLMW3Vg-HoDTsd1an-173" value="ANIO_INSCRIPCION" style="text;html=1;align=right;verticalAlign=middle;resizable=0;points=[];autosize=1;strokeColor=none;fillColor=none;" vertex="1" parent="1">
          <mxGeometry x="320" y="240" width="140" height="30" as="geometry" />
        </mxCell>
        <mxCell id="h-LrLMW3Vg-HoDTsd1an-178" style="edgeStyle=orthogonalEdgeStyle;shape=connector;curved=1;rounded=0;orthogonalLoop=1;jettySize=auto;html=1;entryX=0;entryY=0.5;entryDx=0;entryDy=0;strokeColor=default;align=center;verticalAlign=middle;fontFamily=Helvetica;fontSize=11;fontColor=default;labelBackgroundColor=default;endArrow=none;endFill=0;" edge="1" parent="1" source="h-LrLMW3Vg-HoDTsd1an-174" target="h-LrLMW3Vg-HoDTsd1an-167">
          <mxGeometry relative="1" as="geometry" />
        </mxCell>
        <mxCell id="h-LrLMW3Vg-HoDTsd1an-174" value="" style="ellipse;whiteSpace=wrap;html=1;fillColor=#ffffff;" vertex="1" parent="1">
          <mxGeometry x="460" y="295" width="20" height="20" as="geometry" />
        </mxCell>
        <mxCell id="h-LrLMW3Vg-HoDTsd1an-175" value="ES_REGULAR" style="text;html=1;align=right;verticalAlign=middle;resizable=0;points=[];autosize=1;strokeColor=none;fillColor=none;" vertex="1" parent="1">
          <mxGeometry x="360" y="290" width="100" height="30" as="geometry" />
        </mxCell>
        <mxCell id="h-LrLMW3Vg-HoDTsd1an-177" style="edgeStyle=orthogonalEdgeStyle;shape=connector;curved=1;rounded=0;orthogonalLoop=1;jettySize=auto;html=1;entryX=0.392;entryY=0.16;entryDx=0;entryDy=0;entryPerimeter=0;strokeColor=default;align=center;verticalAlign=middle;fontFamily=Helvetica;fontSize=11;fontColor=default;labelBackgroundColor=default;endArrow=none;endFill=0;" edge="1" parent="1" source="h-LrLMW3Vg-HoDTsd1an-170" target="h-LrLMW3Vg-HoDTsd1an-167">
          <mxGeometry relative="1" as="geometry" />
        </mxCell>
        <mxCell id="h-LrLMW3Vg-HoDTsd1an-179" value="INSCRIBE" style="rhombus;whiteSpace=wrap;html=1;fontFamily=Helvetica;fontSize=11;fontColor=default;labelBackgroundColor=default;" vertex="1" parent="1">
          <mxGeometry x="590" y="345" width="110" height="60" as="geometry" />
        </mxCell>
        <mxCell id="h-LrLMW3Vg-HoDTsd1an-181" style="edgeStyle=orthogonalEdgeStyle;shape=connector;curved=1;rounded=0;orthogonalLoop=1;jettySize=auto;html=1;entryX=0.142;entryY=0.979;entryDx=0;entryDy=0;entryPerimeter=0;strokeColor=default;align=center;verticalAlign=middle;fontFamily=Helvetica;fontSize=11;fontColor=default;labelBackgroundColor=default;endArrow=none;endFill=0;" edge="1" parent="1" source="h-LrLMW3Vg-HoDTsd1an-179" target="h-LrLMW3Vg-HoDTsd1an-76">
          <mxGeometry relative="1" as="geometry" />
        </mxCell>
        <mxCell id="h-LrLMW3Vg-HoDTsd1an-196" value="(0,N)" style="edgeLabel;html=1;align=center;verticalAlign=middle;resizable=0;points=[];fontFamily=Helvetica;fontSize=11;fontColor=default;labelBackgroundColor=default;" vertex="1" connectable="0" parent="h-LrLMW3Vg-HoDTsd1an-181">
          <mxGeometry x="0.2592" y="10" relative="1" as="geometry">
            <mxPoint as="offset" />
          </mxGeometry>
        </mxCell>
        <mxCell id="h-LrLMW3Vg-HoDTsd1an-189" value="" style="ellipse;whiteSpace=wrap;html=1;" vertex="1" parent="1">
          <mxGeometry x="680" y="395" width="20" height="20" as="geometry" />
        </mxCell>
        <mxCell id="h-LrLMW3Vg-HoDTsd1an-190" value="FECHA_EGRESO" style="text;html=1;align=left;verticalAlign=middle;resizable=0;points=[];autosize=1;strokeColor=none;fillColor=none;" vertex="1" parent="1">
          <mxGeometry x="700" y="390" width="120" height="30" as="geometry" />
        </mxCell>
        <mxCell id="h-LrLMW3Vg-HoDTsd1an-195" style="edgeStyle=orthogonalEdgeStyle;shape=connector;curved=1;rounded=0;orthogonalLoop=1;jettySize=auto;html=1;entryX=0.5;entryY=1;entryDx=0;entryDy=0;strokeColor=default;align=center;verticalAlign=middle;fontFamily=Helvetica;fontSize=11;fontColor=default;labelBackgroundColor=default;endArrow=none;endFill=0;" edge="1" parent="1" source="h-LrLMW3Vg-HoDTsd1an-192" target="h-LrLMW3Vg-HoDTsd1an-179">
          <mxGeometry relative="1" as="geometry">
            <Array as="points">
              <mxPoint x="660" y="430" />
              <mxPoint x="660" y="425" />
              <mxPoint x="645" y="425" />
            </Array>
          </mxGeometry>
        </mxCell>
        <mxCell id="h-LrLMW3Vg-HoDTsd1an-192" value="" style="ellipse;whiteSpace=wrap;html=1;" vertex="1" parent="1">
          <mxGeometry x="680" y="425" width="20" height="20" as="geometry" />
        </mxCell>
        <mxCell id="h-LrLMW3Vg-HoDTsd1an-193" value="PROMEDIO(0,1)" style="text;html=1;align=left;verticalAlign=middle;resizable=0;points=[];autosize=1;strokeColor=none;fillColor=none;" vertex="1" parent="1">
          <mxGeometry x="700" y="420" width="110" height="30" as="geometry" />
        </mxCell>
        <mxCell id="h-LrLMW3Vg-HoDTsd1an-194" style="edgeStyle=orthogonalEdgeStyle;shape=connector;curved=1;rounded=0;orthogonalLoop=1;jettySize=auto;html=1;entryX=0.636;entryY=0.917;entryDx=0;entryDy=0;entryPerimeter=0;strokeColor=default;align=center;verticalAlign=middle;fontFamily=Helvetica;fontSize=11;fontColor=default;labelBackgroundColor=default;endArrow=none;endFill=0;" edge="1" parent="1" source="h-LrLMW3Vg-HoDTsd1an-189" target="h-LrLMW3Vg-HoDTsd1an-179">
          <mxGeometry relative="1" as="geometry">
            <Array as="points">
              <mxPoint x="660" y="405" />
            </Array>
          </mxGeometry>
        </mxCell>
        <mxCell id="h-LrLMW3Vg-HoDTsd1an-203" value="(T,E)" style="text;html=1;align=center;verticalAlign=middle;resizable=0;points=[];autosize=1;strokeColor=none;fillColor=none;fontFamily=Helvetica;fontSize=11;fontColor=default;labelBackgroundColor=default;" vertex="1" parent="1">
          <mxGeometry x="530" y="695" width="50" height="30" as="geometry" />
        </mxCell>
      </root>
    </mxGraphModel>
  </diagram>
</mxfile>
